<svg width="40" height="40" viewBox="0 0 40 40" fill="none" xmlns="http://www.w3.org/2000/svg">
<rect width="40" height="40" rx="8" fill="#CFD1E8"/>
<g clip-path="url(#clip0)">
<path d="M29.2734 10.9609L25.2109 10.0234C24.7695 9.92179 24.3163 10.1523 24.1367 10.5663L22.2616 14.9413C22.0976 15.3241 22.207 15.7734 22.5312 16.0351L24.8984 17.9726C23.4921 20.9687 21.0351 23.4608 17.9765 24.8944L16.039 22.5273C15.7734 22.203 15.328 22.0937 14.9452 22.2577L10.5702 24.1327C10.1523 24.3163 9.92179 24.7694 10.0234 25.2108L10.9609 29.2733C11.0585 29.6952 11.4335 29.9999 11.8749 29.9999C21.8788 29.9999 29.9999 21.8944 29.9999 11.8749C29.9999 11.4374 29.6992 11.0585 29.2734 10.9609Z" fill="#6E0CDB"/>
</g>
<defs>
<clipPath id="clip0">
<rect width="20" height="20" fill="white" transform="translate(10 10)"/>
</clipPath>
</defs>
</svg>
